<?xml version="1.0" standalone="no"?>
<!DOCTYPE svg PUBLIC "-//W3C//DTD SVG 1.1//EN" "http://www.w3.org/Graphics/SVG/1.1/DTD/svg11.dtd">
<svg xmlns="http://www.w3.org/2000/svg">
<metadata>Copyright (C) 2020 by original authors @ fontello.com</metadata>
<defs>
<font id="fontello" horiz-adv-x="1000" >
<font-face font-family="fontello" font-weight="400" font-stretch="normal" units-per-em="1000" ascent="850" descent="-150" />
<missing-glyph horiz-adv-x="1000" />
<glyph glyph-name="angle-down" unicode="&#xe800;" d="M279 162l-265 266c-19 18-19 48 0 66l44 44c18 18 48 18 66 0l188-188 189 188c18 18 48 18 66 0l44-44c18-19 18-48 0-66l-266-266c-18-18-47-18-66 0z" horiz-adv-x="625" />

<glyph glyph-name="angle-left" unicode="&#xe801;" d="M62 383l266 266c18 18 48 18 66 0l44-44c18-19 18-48 0-66l-188-189 188-188c18-19 18-48 0-66l-44-45c-18-18-48-18-66 0l-266 266c-18 18-18 48 0 66z" horiz-adv-x="500" />

<glyph glyph-name="angle-right" unicode="&#xe802;" d="M438 317l-265-266c-19-18-49-18-67 0l-44 44c-18 19-18 48 0 67l188 188-188 188c-18 18-18 48 0 66l44 45c18 18 48 18 66 0l266-266c18-18 18-48 0-66z" horiz-adv-x="500" />

<glyph glyph-name="angle-up" unicode="&#xe803;" d="M346 538l265-265c19-19 19-49 0-67l-44-44c-18-18-48-18-66 0l-188 188-189-188c-18-18-48-18-66 0l-44 44c-19 18-19 48 0 66l265 266c19 18 48 18 67 0z" horiz-adv-x="625" />

<glyph glyph-name="arrow-down" unicode="&#xe804;" d="M500 276l248 248c18 18 48 18 66 0s18-48 0-67l-281-281c-18-18-46-18-64-1l-283 282c-10 9-14 22-14 33s4 25 14 34c18 18 48 18 66 0l248-248z" horiz-adv-x="1000" />

<glyph glyph-name="arrow-left" unicode="&#xe805;" d="M426 350l248 248c18 18 18 48 0 66-18 19-48 18-67 0l-281-281c-18-18-18-46-1-64l282-283c9-10 22-14 33-14s25 4 34 14c18 18 18 48 0 66l-248 248z" horiz-adv-x="1000" />

<glyph glyph-name="arrow-right" unicode="&#xe806;" d="M574 350l-248 248c-18 18-18 48 0 66s48 18 67 0l281-281c18-18 18-46 1-64l-282-283c-9-10-21-14-33-14s-24 4-34 14c-18 18-18 48 0 66l248 248z" horiz-adv-x="1000" />

<glyph glyph-name="arrow-slider-left" unicode="&#xe807;" d="M517 849q13 0 23-10 4-3 6-7t3-8 1-9-1-8-3-8-6-8l-445-445 439-439q6-6 9-15t0-18-9-14q-10-10-24-10t-24 10l-463 463q-9 9-9 23t9 24l470 469q10 10 24 10z" horiz-adv-x="783" />

<glyph glyph-name="arrow-slider-right" unicode="&#xe808;" d="M48-150q-14 0-24 10t-10 23 9 24l447 446-440 438q-6 7-8 16t0 17 8 15q10 10 24 10t24-10l462-463q5-4 7-11t3-13-3-12-7-10l-469-470q-5-5-11-8t-12-2z" horiz-adv-x="783" />

<glyph glyph-name="arrow-up" unicode="&#xe809;" d="M500 424l248-248c18-18 48-18 66 0 19 19 18 48 0 67l-281 281c-18 18-46 18-64 1l-283-282c-10-9-14-21-14-33s4-24 14-34c18-18 48-18 66 0l248 248z" horiz-adv-x="1000" />

<glyph glyph-name="article" unicode="&#xe80a;" d="M168 803c-20-11-19 7-20-439 0-452-1-431 21-441 14-7 621-7 635 0 22 10 21-3 21 363v337l-90 92-89 93h-235c-187 0-236-1-243-5z m440-109c0-83 2-93 21-102 7-3 35-4 84-4h74v-316-316h-300-301v407 407h211 211z m114-20l47-48h-61-62v63 64l15-15c8-8 36-37 61-64z m-434-244c-4-4-7-10-7-13s3-10 7-13c5-6 28-6 199-6s194 0 199 6c3 3 6 9 6 13s-3 9-6 13c-5 5-29 6-199 6s-194-1-199-6z m0-149c-4-3-7-9-7-13s3-10 7-13c5-5 28-6 199-6s194 1 199 6c3 3 6 9 6 13s-3 10-6 13c-5 6-29 6-199 6s-194 0-199-6z m0-140c-4-3-7-10-7-13s3-10 7-13c5-6 28-6 199-6s194 0 199 6c3 3 6 9 6 13s-3 10-6 13c-5 5-29 6-199 6s-194-1-199-6z" horiz-adv-x="973" />

<glyph glyph-name="check-circle" unicode="&#xe80b;" d="M708 473l-34 36c-1 1-4 2-6 2-2 0-4-1-5-2l-238-240-87 86c-2 2-4 3-6 3-1 0-3-1-5-3l-35-34c-3-4-3-8 0-12l110-109c7-7 15-11 22-11 11 0 20 8 23 11h0l261 262c3 3 3 8 0 11z m-208 229c94 0 182-37 249-103s103-155 103-249-37-182-103-249-155-103-249-103c-94 0-182 37-249 103s-103 155-103 249 37 182 103 249 155 103 249 103m0 54c-224 0-406-182-406-406s182-406 406-406 406 182 406 406-182 406-406 406z" horiz-adv-x="1000" />

<glyph glyph-name="check" unicode="&#xe80c;" d="M844 682c-10 10-27 10-38 0l-398-398c-11-10-28-10-38 0l-175 178c-5 6-12 8-18 8-7 0-14-2-20-8l-77-69c-5-5-8-12-8-19 0-7 3-14 8-19l176-185c11-11 28-28 38-38l76-77c10-10 27-10 38 0l512 512c10 10 10 28 0 38l-76 77z" horiz-adv-x="1000" />

<glyph glyph-name="circle-outline" unicode="&#xe80d;" d="M500 702c94 0 182-37 249-103s103-155 103-249-37-182-103-249-155-103-249-103c-94 0-182 37-249 103s-103 155-103 249 37 182 103 249 155 103 249 103m0 54c-224 0-406-182-406-406s182-406 406-406 406 182 406 406-182 406-406 406z" horiz-adv-x="1000" />

<glyph glyph-name="circle" unicode="&#xe80e;" d="M500 834c-268 0-484-216-484-484s216-484 484-484 484 216 484 484-216 484-484 484z" horiz-adv-x="1000" />

<glyph glyph-name="clock" unicode="&#xe80f;" d="M500 834c-268 0-484-216-484-484s216-484 484-484 484 216 484 484-216 484-484 484z m0-875c-216 0-391 175-391 391s175 391 391 391 391-175 391-391-175-391-391-391z m121 204l-166 121c-6 4-10 11-10 19v320c0 13 11 24 24 24h62c13 0 24-11 24-24v-276l130-95c11-8 13-22 5-33l-36-51c-8-10-23-12-33-5z" horiz-adv-x="1000" />

<glyph glyph-name="close-circle" unicode="&#xe810;" d="M647 247l-103 103 103 103c12 12 12 32 0 44-12 12-32 12-44 0l-103-103-103 103c-12 12-30 14-44 0-14-14-12-32 0-44l103-103-103-103c-13-13-13-32 0-44 12-13 32-12 44 0l103 103 103-103c12-12 32-12 44 0 12 12 12 32 0 44z m-147 455c94 0 182-37 249-103s103-155 103-249-37-182-103-249-155-103-249-103c-94 0-182 37-249 103s-103 155-103 249 37 182 103 249 155 103 249 103m0 54c-224 0-406-182-406-406s182-406 406-406 406 182 406 406-182 406-406 406z" horiz-adv-x="1000" />

<glyph glyph-name="close" unicode="&#xe811;" d="M988 838c-16 16-41 16-57 0l-919-919c-16-16-16-41 0-57 8-8 18-12 28-12 11 0 21 4 29 12l919 919c16 16 16 41 0 57z m0-919l-919 919c-16 16-41 16-57 0-16-16-16-41 0-57l919-919c8-8 18-12 29-12 10 0 20 4 28 12 16 16 16 41 0 57z" horiz-adv-x="1000" />

<glyph glyph-name="comment" unicode="&#xe812;" d="M393 636q-85 0-160-29t-118-79-44-107q0-45 30-88t83-73l54-32-19-46q19 11 34 21l25 18 30-6q43-8 85-8 85 0 160 29t118 79 43 106-43 107-118 79-160 29z m0 71q106 0 197-38t143-104 53-144-53-143-143-104-197-38q-48 0-98 9-70-49-155-72-21-5-48-9h-2q-6 0-12 5t-6 12q-1 1-1 3t1 4 1 3l1 3 2 3 2 3 3 3 2 2q3 3 13 14t15 16 12 17 14 21 11 25q-69 40-108 98t-40 125q0 78 53 144t143 104 197 38z m459-652q5-14 11-25t14-21 13-16 14-17 13-14q0 0 2-2t3-3 2-3 2-3l1-3 1-3 1-4-1-3q-2-8-7-13t-12-4q-28 4-48 9-86 23-156 72-50-9-98-9-151 0-263 74 32-3 49-3 90 0 172 25t148 72q69 52 107 119t37 141q0 43-13 85 72-39 114-99t42-128q0-67-40-126t-108-98z" horiz-adv-x="1000" />

<glyph glyph-name="copy" unicode="&#xe813;" d="M53 795c-35-37-36-55-36-288 0-277 10-312 100-332 66-15 116 3 116 42 0 21-15 36-45 43-26 5-56 12-68 17-17 5-20 60-17 235l5 230 230 5c175 3 230 0 235-17 5-12 12-42 17-67 7-31 22-46 43-46 39 0 57 50 42 116-20 90-55 100-333 100-242 0-254-1-289-38z m347-282c-73-40-85-85-80-343 7-317-8-303 337-303 340 0 326-14 326 328 0 343 14 328-303 335-170 3-250-2-280-17z m492-321v-234h-234-233l-5 239-5 238 238-5 239-5z" horiz-adv-x="1000" />

<glyph glyph-name="cross" unicode="&#xe814;" d="M841 633c11-11 11-28 0-38l-208-209c-10-10-10-27 0-38l208-208c11-10 11-28 0-38l-76-76c-10-10-27-10-38 0l-208 209c-10 10-27 10-38 0l-208-208c-10-11-27-11-38 0l-75 75c-11 11-11 28 0 38l208 208c10 11 10 28 0 38l-208 209c-11 10-11 27 0 38l76 75c10 11 27 11 37 0l208-208c11-10 28-10 38 0l209 208c10 11 27 11 37 0l76-75z" horiz-adv-x="1000" />

<glyph glyph-name="dashboard" unicode="&#xe815;" d="M8 825c-4-13-6-111-4-217l6-191 194-5c150-4 200 2 217 23 16 17 21 90 18 215l-6 190-208 6c-160 4-210 0-217-21z m357-196v-144h-144-144v144 144h144 144z m206 210c-7-8-13-99-13-200 0-137 7-195 27-210 17-15 92-21 215-17l190 5v212 211l-203 6c-112 2-208-2-216-7z m352-210v-144h-144-144v144 144h144 144z m-915-362c-4-13-6-111-4-217l6-190h211 212l6 190c3 123-2 198-18 215-31 37-398 39-413 2z m357-196v-144h-144-144v144 144h144 144z m214 194c-15-17-21-90-17-215l5-190h212 211v211 212l-194 6c-150 3-200-2-217-24z m344-194v-144h-144-144v144 144h144 144z" horiz-adv-x="1000" />

<glyph glyph-name="dislike" unicode="&#xe816;" d="M636 805h-409c-36 0-68-23-81-55l-137-323c-4-9-9-18-9-31v-87l0 0v-4c0-50 41-91 91-91h286l-45-209c0-5 0-10 0-14 0-18 9-37 18-50l50-46 300 301c18 18 27 40 27 63v455c0 50-41 91-91 91z m182 0v-546h182v546h-182z" horiz-adv-x="1000" />

<glyph glyph-name="download" unicode="&#xe817;" d="M750 100q0 15-11 25t-25 11-25-11-10-25 10-25 25-11 25 11 11 25z m143 0q0 15-11 25t-25 11-25-11-11-25 11-25 25-11 25 11 11 25z m71 125v-179q0-22-15-37t-38-16h-822q-22 0-38 16t-15 37v179q0 22 15 38t38 16h260l75-76q33-32 76-32t76 32l76 76h259q22 0 38-16t15-38z m-181 318q9-23-8-39l-250-250q-10-11-25-11t-25 11l-250 250q-17 16-8 39 10 21 33 21h143v250q0 15 11 25t25 11h142q15 0 26-11t10-25v-250h143q23 0 33-21z" horiz-adv-x="1000" />

<glyph glyph-name="edit" unicode="&#xe818;" d="M568 668l250-250-543-543-223-25c-30-3-55 22-52 52l25 223 543 543z m405 37l-118 118c-36 36-96 36-132 0l-111-111 250-250 111 111c36 36 36 96 0 132z" horiz-adv-x="1000" />

<glyph glyph-name="ellipsis-h" unicode="&#xe819;" d="M321 439v-107q0-22-15-38t-38-15h-107q-23 0-38 15t-16 38v107q0 23 16 38t38 16h107q22 0 38-16t15-38z m286 0v-107q0-22-15-38t-38-15h-108q-22 0-37 15t-16 38v107q0 23 16 38t37 16h108q22 0 38-16t15-38z m286 0v-107q0-22-16-38t-38-15h-107q-22 0-38 15t-15 38v107q0 23 15 38t38 16h107q23 0 38-16t16-38z" horiz-adv-x="1000" />

<glyph glyph-name="envelope" unicode="&#xe81a;" d="M981 477c8 6 19 1 19-9v-399c0-52-42-94-94-94h-812c-52 0-94 42-94 94v399c0 10 11 15 19 9 44-34 102-77 301-222 41-30 111-93 180-93 70 0 141 64 180 93 200 145 257 188 301 222z m-481-252c45-1 111 57 143 81 260 188 279 204 339 251 11 9 18 23 18 37v37c0 52-42 94-94 94h-812c-52 0-94-42-94-94v-37c0-14 7-28 18-37 60-46 80-63 339-251 33-24 98-82 143-81z" horiz-adv-x="1000" />

<glyph glyph-name="exclamation-circle" unicode="&#xe81b;" d="M984 350c0-268-216-484-484-484s-484 216-484 484c0 267 217 484 484 484s484-217 484-484z m-484-98c-50 0-90-40-90-89s40-90 90-90 90 40 90 90-40 89-90 89z m-85 323l14-265c1-13 11-22 24-22h94c13 0 23 9 24 22l14 265c1 14-10 25-23 25h-124c-13 0-24-11-23-25z" horiz-adv-x="1000" />

<glyph glyph-name="eye" unicode="&#xe81c;" d="M929 314q-85 132-213 197 34-58 34-125 0-103-73-177t-177-73-177 73-73 177q0 67 34 125-128-65-213-197 75-114 187-182t242-68 243 68 186 182z m-402 215q0 11-8 19t-19 7q-70 0-120-50t-50-119q0-11 8-19t19-8 19 8 8 19q0 48 34 82t82 34q11 0 19 8t8 19z m473-215q0-19-11-38-78-129-210-206t-279-77-279 77-210 206q-11 19-11 38t11 39q78 128 210 205t279 78 279-78 210-205q11-20 11-39z" horiz-adv-x="1000" />

<glyph glyph-name="facebook" unicode="&#xe81d;" d="M749 843v-147h-87q-48 0-65-20t-17-60v-106h164l-22-165h-142v-424h-170v424h-143v165h143v122q0 104 58 161t154 57q82 0 127-7z" horiz-adv-x="1000" />

<glyph glyph-name="file" unicode="&#xe81e;" d="M643 564v264q12-8 20-16l228-228q7-7 15-20h-263z m-72-18q0-22 16-37t38-16h304v-589q0-23-16-38t-38-16h-750q-22 0-38 16t-16 38v892q0 23 16 38t38 16h446v-304z" horiz-adv-x="1000" />

<glyph glyph-name="folder" unicode="&#xe81f;" d="M906 600h-375l-125 125h-312c-52 0-94-42-94-94v-562c0-52 42-94 94-94h812c52 0 94 42 94 94v437c0 52-42 94-94 94z m-11-531h-789c-7 0-12 5-12 12v539a12 12 0 0 0 12 11h261l125-125h403a12 12 0 0 0 11-11v-414a12 12 0 0 0-11-12z" horiz-adv-x="1000" />

<glyph glyph-name="gallery" unicode="&#xe820;" d="M157 754c-17-12-20-25-20-80v-51h-43c-25 0-47-1-53-4-22-10-21 0-21-337s-1-327 21-338c15-6 782-6 797 0 18 9 21 22 21 80v53h47c50 0 58 2 69 23 9 17 9 620 0 637-13 25 15 23-416 23-350 0-394-1-402-6z m781-336v-302h-40-39v238c0 259 1 255-21 265-7 3-91 4-335 4h-325l1 49 1 49h379 379z m-118 68v-99l-41 41-41 41-170-170-170-170-100 101-101 101-69-70-69-69v196 196h381 380z m-40-113l40-41v-176-177h-380-381v77 77l70 71 70 70 100-100 99-99 170 169c92 92 169 169 170 169 1 0 20-18 42-40z m-342 91c-34-19-49-60-32-91 18-33 60-48 90-32 34 19 49 61 32 91-19 34-60 49-90 32z m48-42c6-5 10-14 10-19 0-13-16-30-29-30s-29 17-29 30c0 5 4 14 9 19 5 6 14 10 20 10s14-4 19-10z" horiz-adv-x="1000" />

<glyph glyph-name="google" unicode="&#xe821;" d="M500 411h405q6-37 6-71 0-121-50-216t-145-149-216-54q-88 0-167 34t-137 91-91 137-34 167 34 167 91 137 137 91 167 34q167 0 287-113l-116-112q-69 67-171 67-72 0-133-37t-97-98-36-136 36-136 97-98 133-37q49 0 89 14t67 33 46 46 29 49 12 43h-243v147z" horiz-adv-x="1000" />

<glyph glyph-name="heart-o" unicode="&#xe822;" d="M929 517q0 46-12 80t-31 55-46 33-52 18-55 4-62-14-62-36-48-40-34-34q-10-13-27-13t-27 13q-14 15-34 34t-48 40-62 36-62 14-55-4-52-18-46-33-31-55-12-80q0-93 105-198l324-312 324 312q105 105 105 198z m71 0q0-123-128-251l-347-335q-10-10-25-10t-25 10l-348 336q-5 5-15 15t-31 37-38 54-30 67-13 77q0 123 71 192t196 70q34 0 70-12t67-33 54-38 42-38q20 20 42 38t54 38 67 33 70 12q125 0 196-70t71-192z" horiz-adv-x="1000" />

<glyph glyph-name="heart" unicode="&#xe823;" d="M500-79q-14 0-25 10l-348 336q-5 5-15 15t-31 37-38 54-30 67-13 77q0 123 71 192t196 70q34 0 70-12t67-33 54-38 42-38q20 20 42 38t54 38 67 33 70 12q125 0 196-70t71-192q0-123-128-251l-347-335q-10-10-25-10z" horiz-adv-x="1000" />

<glyph glyph-name="images" unicode="&#xe824;" d="M1063 725h-63v63c0 34-28 62-62 62h-875c-35 0-63-28-63-62v-750c0-35 28-63 63-63h62v-63c0-34 28-62 63-62h875c34 0 62 28 62 62v751c0 34-28 62-62 62z m-938-62v-625h-62l0 0v749l0 1h874l1-1v-62h-750c-35 0-63-28-63-62z m938-750l-1-1h-874l0 1v749l0 1h874l1-1v-749z m-125 593a94 94 0 1 0-188 0 94 94 0 0 0 188 0z m62-531h-750v125l219 375 250-312h62l219 187z" horiz-adv-x="1125" />

<glyph glyph-name="inbox" unicode="&#xe825;" d="M642 314h177q-1 2-2 5t-1 4l-118 277h-395l-119-277q0-1-1-4t-2-5h177l53-107h178z m287-16v-269q0-15-11-25t-25-11h-786q-14 0-25 11t-11 25v269q0 34 14 68l133 308q6 14 21 24t29 9h464q15 0 29-9t21-24l133-308q14-34 14-68z" horiz-adv-x="1000" />

<glyph glyph-name="instagram" unicode="&#xe826;" d="M643 350q0 59-42 101t-101 42-101-42-42-101 42-101 101-42 101 42 42 101z m77 0q0-91-64-156t-156-64-156 64-64 156 64 156 156 64 156-64 64-156z m60 229q0-21-15-36t-36-15-36 15-15 36 15 36 36 15 36-15 15-36z m-280 123q-4 0-43 0t-59 0-53-2-58-5-40-11q-28-11-49-32t-32-49q-6-16-11-40t-5-58-2-53 0-59 0-43 0-43 0-59 2-53 5-58 11-40q11-28 32-49t49-32q16-6 40-11t58-5 53-2 59 0 43 0 43 0 59 0 53 2 58 5 40 11q28 11 49 32t32 49q6 16 11 40t5 58 2 53 0 59 0 43 0 43 0 59-2 53-5 58-11 40q-11 28-32 49t-49 32q-16 6-40 11t-58 5-53 2-59 0-43 0z m429-352q0-128-3-177-6-116-69-180t-180-69q-49-3-177-3t-177 3q-116 6-180 69t-69 180q-3 49-3 177t3 177q6 116 69 180t180 69q49 3 177 3t177-3q116-6 180-69t69-180q3-49 3-177z" horiz-adv-x="1000" />

<glyph glyph-name="language" unicode="&#xe827;" d="M436 248q0-1-7 1t-17 6l-11 5q-25 11-49 28-4 2-23 17t-21 16q-37-57-75-101-45-53-58-61-3-1-11-3t-10 0q3 3 45 52 12 13 48 64t44 66q9 17 28 55t20 43q-4 1-61-18-5-2-15-5t-20-5-9-3q-1-1-1-6t-1-5q-3-5-17-8-13-4-26 0-10 2-16 11-2 4-3 13 4 1 14 3t16 3q33 9 59 18 56 20 57 20 5 1 24 11t24 12q5 1 12 4t9 3 3 0q1-7-1-18 0-2-7-16t-14-29-10-19q-14-28-43-73l36-16q7-3 41-18t38-15q2-1 6-14t2-18z m-114 272q2-9-2-16-7-13-28-21-17-7-34-7-14 2-27 15-8 8-10 23l1 1q1-1 10-3t15 0 33 9q20 7 30 8 10 0 12-9z m390-72l35-127-78 23z m-619-447l388 130v576l-388-130v-576z m693 177l57-17-101 367-56 17-121-299 57-18 25 62 118-36z m-281 537l320-103v212z m174-738l88-8-30-89-23 37q-72-46-154-60-32-7-50-7h-47q-44 0-112 22t-102 47q-5 4-5 9 0 5 3 8t8 3q2 0 10-5t17-9 11-6q41-21 89-34t88-14q53 0 93 8t88 28q8 4 17 9t19 11 16 9z m250 602v-602l-432 137q-8-3-210-71t-205-68q-7 0-10 7 0 1-1 2v602q2 5 3 5 3 3 11 6 60 20 83 28v214l311-110q2 0 90 31t176 60 90 30q12 0 12-12v-233z" horiz-adv-x="1000" />

<glyph glyph-name="like" unicode="&#xe828;" d="M0-105h182v546h-182v-546z m1000 501c0 50-41 90-91 90h-286l45 210c0 4 0 9 0 13 0 18-9 37-18 50l-50 46-300-300c-18-14-27-37-27-64v-455c0-50 41-91 91-91h409c36 0 68 23 82 55l136 323c5 9 5 23 5 32v91h4c0-5 0 0 0 0z" horiz-adv-x="1000" />

<glyph glyph-name="linkedin" unicode="&#xe829;" d="M196-88h-181v585h181v-585z m-91 664c-58 0-105 48-105 106 0 58 47 106 105 106 58 0 105-48 105-106 0-58-47-106-105-106z m770-664h-181v285c0 68-1 155-94 155-95 0-109-74-109-150v-290h-181v585h174v-80h2c24 46 84 94 172 94 183 0 217-121 217-278v-321z" horiz-adv-x="875" />

<glyph glyph-name="list" unicode="&#xe82a;" d="M179 807c-22-25-31-42-26-52 2-4 8-10 12-12 8-5 9-9 9-64 0-40 1-60 5-64 7-8 26-5 36 4 8 9 8 15 8 93v84l-11 13c-14 15-18 15-33-2z m251-106c-5-4-8-12-8-16s3-12 8-17c8-8 13-8 310-8s301 0 310 8c4 5 8 12 8 17s-4 12-8 16c-9 9-14 9-310 9s-302 0-310-9z m-271-231c-19-11-27-24-27-44s7-28 24-26c9 1 13 5 19 17 9 18 24 21 32 7 6-12 1-19-34-48-51-41-64-71-44-94 9-10 10-10 63-10 58 0 64 2 64 21 0 17-10 22-49 24l-35 2 33 26c25 19 36 30 43 44 15 32 7 64-22 81-17 11-50 11-67 0z m271-103c-5-5-8-12-8-17s3-12 8-16c8-9 13-9 310-9s301 0 310 9c4 4 8 12 8 16s-4 12-8 17c-9 8-14 8-310 8s-302 0-310-8z m-276-253c-17-11-29-40-22-53 6-11 21-17 30-12 4 2 10 10 14 18 3 9 8 14 13 14 21 0 24-30 4-32-16-2-26-18-20-32 3-5 9-11 16-12 21-5 22-6 22-18 0-21-4-25-20-25-12 0-15 2-19 14-10 22-32 24-46 5-5-10-5-12 2-27 9-19 23-30 47-38 16-6 34-2 56 11 24 15 34 61 19 89-5 10-6 15-2 25 10 29 1 62-20 75-18 10-57 9-74-2z m276-103c-5-4-8-12-8-16s3-12 8-17c8-8 13-8 310-8s301 0 310 8c4 5 8 12 8 17s-4 12-8 16c-9 8-14 8-310 8s-302 0-310-8z" horiz-adv-x="1058" />

<glyph glyph-name="login" unicode="&#xe82b;" d="M613 824c-46-55 6-85 148-85h128v-389-389h-128c-142 0-194-30-148-85 39-48 281-30 335 26 41 41 43 52 43 448s-2 407-43 448c-54 56-296 74-335 26z m-243-228c0-18 36-68 78-111l78-79h-243c-192 0-246-6-264-28s-19-34 0-56 72-28 264-28h243l-78-79c-42-43-78-93-78-111 0-65 69-28 204 107l137 139-137 139c-135 135-204 172-204 107z" horiz-adv-x="1000" />

<glyph glyph-name="logout-thin" unicode="&#xe82c;" d="M48 804l-48-48v-406-406l48-48c44-44 60-48 187-42 109 4 140 11 140 34 0 22-29 31-125 35-67 4-135 15-148 27-37 29-37 771 0 800 13 12 81 23 148 27 96 4 125 13 125 35 0 23-31 30-140 34-127 6-143 2-187-42z m625-189c0-15 44-69 96-121l98-96-275-9c-227-8-275-16-275-39s48-31 275-38l275-10-98-96c-94-92-123-154-69-141 33 8 300 262 300 285s-267 277-300 285c-15 4-27-6-27-20z" horiz-adv-x="1000" />

<glyph glyph-name="logout" unicode="&#xe82d;" d="M93 826c-87-43-95-85-89-498 5-371 7-385 48-426 54-56 296-74 335-26 46 55-5 85-148 85h-128v389 389h128c141 0 194 30 150 83-30 35-230 37-296 4z m574-230c0-18 35-68 77-111l78-79h-242c-193 0-247-6-265-28s-19-34 0-56 72-28 265-28h242l-78-79c-42-43-77-93-77-111 0-65 68-28 203 107l137 139-137 139c-135 135-203 172-203 107z" horiz-adv-x="1000" />

<glyph glyph-name="long-arrow-left" unicode="&#xe82e;" d="M1000 404v-108q0-7-5-12t-13-5h-696v-125q0-12-11-17t-19 3l-215 196q-5 5-5 12 0 8 5 14l215 197q9 8 19 4 11-5 11-17v-125h696q8 0 13-5t5-12z" horiz-adv-x="1000" />

<glyph glyph-name="long-arrow-right" unicode="&#xe82f;" d="M964 352q0-8-5-14l-215-197q-8-8-19-4-11 5-11 17v125h-696q-8 0-13 5t-5 12v108q0 7 5 12t13 5h696v125q0 12 11 17t19-3l215-195q5-6 5-13z" horiz-adv-x="1000" />

<glyph glyph-name="mail" unicode="&#xe830;" d="M878 731h-756c-67 0-122-55-122-123v-516c0-68 55-123 122-123h756c67 0 122 55 122 123v516c0 68-55 123-122 123z m66-639c0-37-29-67-66-67h-756c-36 0-66 30-66 67v516c0 37 30 66 66 66h756c36 0 66-29 66-66v-516h0z m-313 264l244 220c12 10 13 28 2 39-10 12-28 13-39 2l-337-302-66 58c0 1-1 1-1 1-1 2-3 3-4 4l-268 240c-12 10-29 9-39-3-11-11-10-29 2-39l247-221-246-231c-11-11-12-28-1-40 5-5 13-9 20-9 7 0 14 3 19 8l250 234 68-61c6-4 12-7 19-7 6 0 13 3 18 8l70 62 249-236c5-5 12-8 19-8 8 0 15 3 20 9 11 11 10 29-1 39l-245 233z" horiz-adv-x="1000" />

<glyph glyph-name="map-marker" unicode="&#xe831;" d="M337-130c-284 412-337 454-337 605 0 207 168 375 375 375s375-168 375-375c0-151-53-193-336-605-19-27-59-27-77 0z m38 449c86 0 156 70 156 156s-70 156-156 156-156-70-156-156 70-156 156-156z" horiz-adv-x="750" />

<glyph glyph-name="menu" unicode="&#xe832;" d="M950 400h-900c-28 0-50-22-50-50 0-28 22-50 50-50h900c28 0 50 22 50 50 0 28-22 50-50 50z m-900 200h900c28 0 50 22 50 50s-22 50-50 50h-900c-28 0-50-22-50-50s22-50 50-50z m900-500h-900c-28 0-50-22-50-50 0-27 22-50 50-50h900c28 0 50 23 50 50 0 28-22 50-50 50z" horiz-adv-x="1000" />

<glyph glyph-name="music-circle" unicode="&#xe833;" d="M500 788c244 0 438-194 438-438s-194-438-438-438-437 194-437 438 193 438 437 438z m0 62c-275 0-500-225-500-500s225-500 500-500 500 225 500 500-225 500-500 500l0 0z m-109-593c-15 11-36 17-58 17-50 0-90-31-90-71 0-40 40-72 90-72s90 32 90 72v218l229 37v-166c-16 9-35 16-56 16-50 0-90-32-90-72 0-40 40-72 90-72 50 0 90 32 90 72 0 2 0 5-1 8h1v355l-295-60v-282z" horiz-adv-x="1000" />

<glyph glyph-name="music" unicode="&#xe834;" d="M951 630v192c0 9-4 17-11 23-8 5-17 6-26 4l-572-182c-11-4-19-15-19-27v-192 0-368c-30 21-69 32-109 32-42 0-83-12-114-35-33-25-51-59-51-96s18-70 51-95c31-23 71-36 114-36s83 13 114 36c33 25 51 58 51 95v446l516 164v-328c-30 21-69 32-109 32-43 0-83-13-114-36-33-25-51-59-51-95s18-71 51-96c31-23 71-35 114-35s83 12 114 35c33 25 51 59 51 96v466c0 0 0 0 0 0z m-737-723c-59 0-108 34-108 74 0 41 49 75 108 75s109-34 109-75c0-41-50-74-109-74z m165 580v133l516 163v-133l-516-163z m407-398c-59 0-108 34-108 75 0 40 49 74 108 74s109-34 109-74c0-41-50-75-109-75z" horiz-adv-x="1000" />

<glyph glyph-name="personality-quiz" unicode="&#xe835;" d="M424 847c-96-13-195-72-251-149-52-70-75-139-75-222 0-21-2-36-6-43-3-6-22-26-41-46-54-53-63-77-38-101 8-7 23-17 35-22 15-6 23-12 24-17 1-5 7-44 14-88 17-116 19-121 36-137 19-20 34-24 89-24h46l2-41c2-23 4-43 4-43 1-2 12 1 24 5l22 7-2 51c-4 74 2 68-73 68-63 0-74 2-81 15-2 4-11 55-20 112-12 75-18 108-23 113-3 4-18 12-31 19-14 6-27 12-27 13-1 1 16 19 37 40s42 44 46 52c5 10 8 27 10 64 4 77 20 126 57 182 62 91 160 144 269 145 92 1 173-31 236-94 63-62 98-146 98-233 0-46-9-84-33-146-38-96-49-154-52-256l-2-78 18-18c14-14 19-16 23-13 3 4 6 31 7 92 3 112 14 165 51 257 25 64 31 89 33 148 4 87-15 154-61 223-58 87-147 145-249 162-31 6-88 7-116 3z m-1-190c-26-7-64-22-64-26 0-3 23-50 26-54 0 0 17 5 37 12 61 20 101 11 101-23 0-20-9-34-38-57-45-37-55-53-55-89v-20l34 2 34 1 2 19c2 18 4 21 23 37 12 10 33 29 46 42 21 21 24 26 29 46 6 33-3 67-25 87-21 20-41 26-87 27-25 1-51-1-63-4z m30-303c-20-5-31-20-31-43 0-37 29-53 68-38 13 5 22 21 22 42 0 28-26 45-59 39z" horiz-adv-x="852" />

<glyph glyph-name="phone" unicode="&#xe836;" d="M964 802l-203 47c-22 5-45-7-54-27l-94-219c-8-19-3-42 14-55l118-97c-70-149-193-274-346-346l-97 119c-13 16-36 21-55 13l-218-94c-21-9-33-31-28-53l47-204c5-21 24-36 46-36 500 0 906 405 906 906 0 22-15 41-36 46z" horiz-adv-x="1000" />

<glyph glyph-name="pinterest" unicode="&#xe837;" d="M143 517q0 60 21 113t58 93 84 69 104 44 112 14q89 0 164-37t124-108 47-160q0-54-10-105t-34-99-56-83-81-58-105-21q-38 0-75 18t-54 49q-6-22-16-63t-13-53-11-40-15-39-18-35-25-44-35-48l-8-3-5 6q-8 88-8 105 0 51 12 115t37 161 29 113q-18 36-18 94 0 47 29 87t74 41q34 0 53-23t19-57q0-37-25-106t-24-105q0-35 25-58t61-23q30 0 57 14t43 38 32 53 21 61 11 62 4 56q0 96-61 150t-160 54q-111 0-186-72t-75-183q0-25 7-48t15-36 15-26 7-17q0-15-8-40t-21-25q-1 0-9 1-29 9-51 31t-34 53-18 60-6 60z" horiz-adv-x="1000" />

<glyph glyph-name="play-circle" unicode="&#xe838;" d="M500 788c244 0 438-194 438-438s-194-438-438-438-437 194-437 438 193 438 437 438z m0 62c-275 0-500-225-500-500s225-500 500-500 500 225 500 500-225 500-500 500l0 0z m-125-250v-500l375 250-375 250z" horiz-adv-x="1000" />

<glyph glyph-name="plus" unicode="&#xe839;" d="M813 444h-282v281c0 35-28 63-62 63h-63c-34 0-62-28-62-63v-281h-281c-35 0-63-28-63-63v-62c0-35 28-63 63-63h281v-281c0-35 28-63 62-63h63c34 0 62 28 62 63v281h282c34 0 62 28 62 63v62c0 35-28 63-62 63z" horiz-adv-x="875" />

<glyph glyph-name="print" unicode="&#xe83a;" d="M250-7h500v143h-500v-143z m0 357h500v214h-89q-23 0-38 16t-16 38v89h-357v-357z m643-36q0 15-11 25t-25 11-25-11-11-25 11-25 25-10 25 10 11 25z m71 0v-232q0-7-5-12t-13-6h-125v-89q0-22-15-38t-38-16h-536q-22 0-38 16t-15 38v89h-125q-8 0-13 6t-5 12v232q0 44 31 76t76 31h36v304q0 22 15 38t38 16h375q23 0 49-12t43-26l85-85q15-16 26-43t11-49v-143h36q44 0 76-31t31-76z" horiz-adv-x="1000" />

<glyph glyph-name="refresh" unicode="&#xe83b;" d="M915 261q0-3-1-4-36-150-149-243t-267-93q-82 0-158 31t-136 88l-72-72q-10-11-25-11t-25 11-11 25v250q0 14 11 25t25 11h250q15 0 25-11t11-25-11-25l-76-77q39-36 90-57t104-20q75 0 140 37t103 99q6 10 30 66 4 13 17 13h107q7 0 12-6t6-12z m14 446v-250q0-14-11-25t-25-11h-250q-15 0-25 11t-11 25 11 25l77 77q-83 77-195 77-75 0-139-37t-104-99q-6-10-30-66-4-13-17-13h-111q-7 0-12 6t-5 12v4q36 150 150 243t268 93q82 0 159-31t136-88l73 72q10 11 25 11t25-11 11-25z" horiz-adv-x="1000" />

<glyph glyph-name="reply" unicode="&#xe83c;" d="M16 479l344 297c30 26 78 5 78-35v-157c313-3 562-66 562-363 0-120-77-239-163-302-26-19-64 5-55 37 89 283-42 358-344 363v-172c0-41-48-62-78-36l-344 297c-21 19-21 53 0 71z" horiz-adv-x="1000" />

<glyph glyph-name="rss" unicode="&#xe83d;" d="M321 100q0-45-31-76t-76-31-76 31-31 76 31 76 76 31 76-31 31-76z m286-69q1-15-9-26-10-12-27-12h-75q-14 0-24 9t-11 23q-12 128-103 219t-218 103q-14 1-24 11t-9 24v75q0 16 12 26 9 10 24 10h3q89-7 170-45t145-101q64-63 101-145t45-171z m286-1q1-15-10-26-10-11-26-11h-80q-14 0-24 10t-11 23q-7 120-57 228t-129 188-187 129-228 57q-14 1-24 11t-10 24v80q0 16 11 26 10 10 25 10h2q146-8 279-67t238-164q104-104 164-238t67-280z" horiz-adv-x="1000" />

<glyph glyph-name="search" unicode="&#xe83e;" d="M968-61l-238 248c61 72 95 164 95 259 0 223-181 404-404 404s-404-181-404-404 181-403 404-403c84 0 163 25 231 73l240-250c10-10 24-16 38-16 14 0 27 5 37 15 21 20 21 53 1 74z m-547 806c165 0 298-134 298-299s-133-298-298-298-298 134-298 298 134 299 298 299z" horiz-adv-x="1000" />

<glyph glyph-name="send" unicode="&#xe83f;" d="M984 844q19-13 15-36l-142-857q-3-16-18-25-8-5-18-5-6 0-13 3l-253 104-135-165q-10-13-27-13-7 0-12 2-11 4-17 13t-7 21v195l482 590-596-516-221 91q-20 8-22 30-1 23 18 33l928 536q9 5 18 5 11 0 20-6z" horiz-adv-x="1000" />

<glyph glyph-name="settings" unicode="&#xe840;" d="M417 806c-15-15-26-43-26-61 0-53-39-75-82-45-48 34-115 31-153-6-34-35-40-110-12-155 23-37 6-80-35-80-48 0-93-54-93-114s32-97 98-112c56-14 64-31 36-74-34-48-31-115 6-153 35-34 110-40 155-12 37 23 80 6 80-35 0-48 54-93 114-93s97 32 112 98c14 56 31 64 74 36 48-34 115-31 153 6 34 35 40 110 12 155-25 41-4 80 39 80 52 0 89 47 89 112 0 61-37 106-89 106-53 0-75 39-45 82 34 48 31 115-6 153-35 34-110 40-155 12-41-25-80-4-80 39 0 21-12 49-28 63-39 36-133 34-164-2z m136-97c24-76 86-104 153-71 27 14 58 25 67 25 35 0 40-46 13-104-25-50-25-59-3-96 12-24 47-50 76-60 77-25 77-81 0-106-76-24-104-86-71-153 14-27 25-58 25-67 0-35-46-39-104-13-48 25-59 25-95 5-23-13-50-49-59-78-27-77-83-77-108 0-24 76-86 104-153 72-27-15-58-25-67-25-35 0-39 45-13 103 25 48 25 59 5 95-13 23-49 50-78 59-77 27-77 83 0 108 76 24 104 86 72 153-15 27-25 58-25 67 0 35 45 40 101 13 86-41 133-11 170 109 16 49 74 27 94-36z m-130-225c-135-75-78-290 77-290 80 0 156 76 156 154 0 118-129 194-233 136z m140-71c17-18 31-46 31-63 0-41-53-94-94-94s-94 53-94 94c0 17 14 45 32 63s45 31 62 31 45-14 63-31z" horiz-adv-x="1000" />

<glyph glyph-name="star-o" unicode="&#xe841;" d="M420 691c-75-153-72-152-254-173-62-5-127-22-143-34-28-21-21-34 90-146l123-122-23-164c-13-91-17-172-9-179s80 22 162 63l152 75 152-75c82-41 155-70 162-63s4 88-9 179l-23 164 123 122c111 112 118 125 90 146-17 12-81 29-143 34-182 21-179 20-254 173-45 89-80 141-98 141s-54-52-98-141z m164-98c61-122 45-113 254-145l76-12-98-102-98-100 21-130c13-70 22-129 18-129s-59 29-123 64l-116 65-116-65c-64-35-120-64-123-64s5 59 17 130l22 129-98 100-99 102 77 12c209 32 193 23 254 145 30 62 61 114 66 114s36-52 66-114z" horiz-adv-x="1036" />

<glyph glyph-name="star" unicode="&#xe842;" d="M964 489q0-12-14-27l-203-197 48-279q1-4 1-12 0-11-6-19t-17-9q-11 0-22 7l-251 132-251-132q-12-7-22-7-12 0-17 9t-6 19q0 4 1 12l48 279-203 197q-14 15-14 27 0 21 31 26l280 40 126 254q10 23 27 23t27-23l126-254 280-40q31-5 31-26z" horiz-adv-x="1000" />

<glyph glyph-name="telegram" unicode="&#xe843;" d="M873 657l-133-622c-9-44-35-55-72-34l-202 148-97-93c-10-11-19-20-40-20l14 205 373 337c16 14-3 22-25 8l-461-291-198 62c-44 14-44 44 9 64l776 299c36 14 67-8 56-63z" horiz-adv-x="875" />

<glyph glyph-name="times" unicode="&#xe844;" d="M588 350l394 393c24 25 24 64 0 89-25 24-64 24-89 0l-393-394-393 394c-25 24-64 24-89 0-24-25-24-64 0-89l394-393-394-393c-24-25-24-64 0-89 13-12 29-18 45-18s32 6 44 18l393 394 393-394c13-12 29-18 45-18s32 6 44 18c24 25 24 64 0 89l-394 393z" horiz-adv-x="1000" />

<glyph glyph-name="trash" unicode="&#xe845;" d="M270 795c-20-22-37-58-37-83 0-44-3-45-98-45-110 0-157-30-118-75 11-14 35-25 51-25 30 0 32-19 32-314 0-413-23-386 352-386 371 0 348-25 348 388 0 293 2 312 32 312 16 0 40 11 51 25 39 45-8 75-118 75-97 0-98 0-98 46 0 29-17 62-39 84-33 31-58 36-180 36-126 0-146-3-178-38z m310-90c5-37 2-38-128-38-120 0-135 3-135 30 0 50 16 55 141 50 107-5 117-9 122-42z m133-442l-5-305h-258-258l-5 305-4 304h267 267z m-390 149c-5-14-6-90-3-172 5-135 8-148 38-148 32 0 34 13 39 171 5 162 3 170-30 170-19 0-39-10-44-21z m180-149c5-158 7-171 39-171s33 11 33 166c0 162-2 167-38 172-39 5-39 5-34-167z" horiz-adv-x="900" />

<glyph glyph-name="trivia-quiz" unicode="&#xe846;" d="M181 769l-82-82-30 30c-25 24-33 30-43 30-16 0-26-10-26-26 0-11 7-20 45-58 25-25 48-44 53-44 9 0 204 193 204 203s-21 28-30 28c-6 0-38-28-91-81z m249-68c-5-4-8-12-8-16s3-12 8-17c8-8 13-8 310-8s301 0 310 8c4 5 8 12 8 17s-4 12-8 16c-9 9-14 9-310 9s-302 0-310-9z m-395-194c-4-2-13-8-18-14l-11-12v-119-119l14-14 13-13h120 120l13 13 14 14v119 120l-14 14-13 13-115 1c-63 0-118-1-123-3z m217-145v-99h-99-99v99 100h99 99z m178 5c-5-5-8-12-8-17s3-12 8-16c8-9 13-9 310-9s301 0 310 9c4 4 8 12 8 16s-4 12-8 17c-9 8-14 8-310 8s-302 0-310-8z m-395-227c-4-2-13-9-18-15l-11-11v-119-120l12-12 13-13h122 122l13 13 12 12v120 120l-14 13-13 13-115 1c-63 1-118-1-123-2z m217-145v-100h-99-99v100 99h99 99z m178 16c-5-4-8-12-8-16s3-12 8-17c8-8 13-8 310-8s301 0 310 8c4 5 8 12 8 17s-4 12-8 16c-9 8-14 8-310 8s-302 0-310-8z" horiz-adv-x="1058" />

<glyph glyph-name="tumblr" unicode="&#xe847;" d="M741 108l45-132q-13-19-62-37t-99-18q-58-1-106 15t-80 41-53 59-31 67-9 66v304h-94v120q40 14 72 39t51 50 32 57 19 55 9 49q0 3 2 5t4 2h137v-237h185v-140h-186v-289q0-17 4-31t12-30 28-23 45-8q44 1 75 16z" horiz-adv-x="1000" />

<glyph glyph-name="twitter" unicode="&#xe848;" d="M940 622q-38-54-91-93 1-8 1-23 0-73-21-145t-65-139-103-117-144-82-180-30q-151 0-277 81 20-2 44-2 125 0 224 77-59 1-105 36t-64 89q19-3 34-3 24 0 48 6-63 13-104 62t-41 115v2q38-21 82-23-37 25-59 64t-22 86q0 49 25 91 67-83 164-133t207-55q-4 21-4 41 0 75 53 127t127 53q78 0 132-57 61 12 114 44-20-64-79-100 52 6 104 28z" horiz-adv-x="1000" />

<glyph glyph-name="user-minus" unicode="&#xe849;" d="M1219 444h-375c-17 0-31-14-31-31v-63c0-17 14-31 31-31h375c17 0 31 14 31 31v63c0 17-14 31-31 31z m-781-94c138 0 250 112 250 250s-112 250-250 250-250-112-250-250 111-250 250-250z m175-62h-33c-43-20-92-32-142-32s-99 12-143 32h-32c-145 0-263-118-263-263v-81c0-52 42-94 94-94h687c52 0 94 42 94 94v81c0 145-118 263-262 263z" horiz-adv-x="1250" />

<glyph glyph-name="user-plus-o" unicode="&#xe84a;" d="M322 824c-68-31-129-105-146-178-30-131 80-276 217-290 285-28 377 355 113 468-74 32-110 32-184 0z m176-104c58-29 84-118 54-179-70-148-274-104-274 61 0 104 124 170 220 118z m446-201v-76h-75c-67 0-75-4-69-41 4-33 19-45 74-48 65-6 69-10 74-74 4-54 13-69 43-69s39 15 42 69c6 64 10 68 74 74 54 3 69 13 69 42s-15 39-69 43c-64 5-68 9-74 74-3 56-14 70-46 74-39 6-43-2-43-68z m-787-287c-105-49-146-112-153-241-6-97-2-119 24-130 48-18 65 4 65 83 0 84 39 175 83 191 17 6 130 11 252 11 211 0 224-2 266-46 38-35 47-63 47-135 0-91 31-134 76-104 26 15 18 208-10 265-53 102-109 120-363 126-166 4-246-2-287-20z" horiz-adv-x="1185" />

<glyph glyph-name="user-plus" unicode="&#xe84b;" d="M1219 444h-125v125c0 17-14 31-31 31h-63c-17 0-31-14-31-31v-125h-125c-17 0-31-14-31-31v-63c0-17 14-31 31-31h125v-125c0-17 14-31 31-31h63c17 0 31 14 31 31v125h125c17 0 31 14 31 31v63c0 17-14 31-31 31z m-781-94c138 0 250 112 250 250s-112 250-250 250-250-112-250-250 111-250 250-250z m175-62h-33c-43-20-92-32-142-32s-99 12-143 32h-32c-145 0-263-118-263-263v-81c0-52 42-94 94-94h687c52 0 94 42 94 94v81c0 145-118 263-262 263z" horiz-adv-x="1250" />

<glyph glyph-name="user" unicode="&#xe84c;" d="M331 812c-135-83-150-262-33-379 56-56 75-64 164-64s107 8 163 64c37 36 69 92 77 132 27 143-92 285-240 285-37 0-97-17-131-38z m211-60c56-29 97-138 75-198-53-140-257-140-311 0-21 58 19 167 73 198 44 27 113 27 163 0z m-380-535c-22-9-64-44-91-78-44-50-52-79-52-178s4-113 35-107c23 4 35 27 38 82 14 203 45 222 370 222s355-19 369-222c4-55 15-78 40-82 29-6 33 9 33 109 0 108-6 126-65 191l-66 71-286 4c-156 2-302-2-325-12z" horiz-adv-x="923" />

<glyph glyph-name="video" unicode="&#xe84d;" d="M500 800c248 0 450-202 450-450s-202-450-450-450-450 202-450 450 202 450 450 450m0 50c-276 0-500-224-500-500s224-500 500-500 500 224 500 500-224 500-500 500l0 0z m200-446l-266 176c-46 30-84 9-84-46v-368c0-55 38-76 84-46l266 175c46 30 46 79 0 109z m-36-73l-236-154c-15-10-28-4-28 15v317c0 18 13 25 28 15l236-156c16-10 16-27 0-37z" horiz-adv-x="1000" />

<glyph glyph-name="vk" unicode="&#xe84e;" d="M1065 620c7 25 0 43-35 43h-115c-30 0-43-16-50-33 0 0-59-143-142-235-26-27-39-36-53-36-8 0-19 9-19 33v228c0 29-8 43-32 43h-181c-18 0-29-14-29-27 0-28 41-34 45-112v-170c0-37-6-44-21-44-39 0-134 144-190 308-12 32-23 45-52 45h-115c-33 0-40-16-40-33 0-31 39-182 182-382 95-136 229-210 351-210 73 0 82 16 82 44 0 131-6 143 30 143 17 0 47-9 115-74 78-78 91-113 135-113h115c33 0 49 16 40 48-22 69-170 209-177 218-17 22-12 32 0 51 1 1 141 198 156 265z" horiz-adv-x="1125" />

<glyph glyph-name="whatsapp" unicode="&#xe84f;" d="M621 307q7 0 55-25t49-30q2-2 2-8 0-18-10-42-9-22-39-37t-57-15q-32 0-106 35-55 25-95 66t-83 103q-40 60-40 108v5q2 50 42 88 13 12 29 12 3 0 10-1t10-1q11 0 15-3t9-16q4-11 18-49t14-41q0-12-19-33t-19-26q0-3 3-8 19-41 56-76 32-30 85-57 6-4 12-4 8 0 30 27t29 28z m-113-296q71 0 136 28t112 74 74 112 28 136-28 136-74 112-112 75-136 28-136-28-112-75-75-112-28-136q0-113 67-205l-44-130 135 43q89-58 193-58z m0 771q85 0 163-34t134-89 90-135 34-163-34-163-90-134-134-90-163-34q-109 0-204 53l-233-75 76 226q-60 99-60 217 0 86 34 163t89 135 135 89 163 34z" horiz-adv-x="1000" />

<glyph glyph-name="youtube" unicode="&#xe850;" d="M1074 608c-13 46-49 82-95 95-83 22-416 22-416 22s-334 0-417-22c-46-13-82-49-94-95-23-84-23-259-23-259s0-174 23-258c12-46 48-81 94-94 83-22 417-22 417-22s333 0 416 22c46 13 82 48 95 94 22 84 22 258 22 258s0 175-22 259z m-621-417v317l279-159-279-158z" horiz-adv-x="1125" />
</font>
</defs>
</svg>
