<svg
  viewBox="0 0 1024 1024" 
  version="1.1" 
  xmlns="http://www.w3.org/2000/svg" 
  width="300"
  height="300" 
  xmlns:xlink="http://www.w3.org/1999/xlink"
  >
  <path
    d="M87 160h850c13.255 0 24 10.745 24 24v656c0 13.255-10.745 24-24 24H87c-13.255 0-24-10.745-24-24V184c0-13.255 10.745-24 24-24z"
    fill="#fafafa" fill-opacity=".45"
    class="selected"></path>
  <path
    d="M111 864l128.17-128.361c22.092-22.125 57.936-22.151 80.06-0.06 22.124 22.091 57.968 22.065 80.06-0.06l120.576-120.756c39.023-39.081 102.34-39.128 141.42-0.105L911 864H111z"
    fill="#ABABAB" fill-opacity=".574"></path>
  <path d="M321 487m-48 0a48 48 0 1 0 96 0 48 48 0 1 0-96 0Z" fill="#ABABAB" fill-opacity=".574"></path>
</svg>
