<?xml version="1.0" encoding="utf-8"?>
<!-- Generator: Adobe Illustrator 22.0.1, SVG Export Plug-In . SVG Version: 6.00 Build 0)  -->
<svg version="1.1" id="Layer_1" xmlns="http://www.w3.org/2000/svg" xmlns:xlink="http://www.w3.org/1999/xlink" x="0px" y="0px"
	 width="190px" height="60px" viewBox="0 0 190 60" enable-background="new 0 0 190 60" xml:space="preserve">
<symbol  id="New_Symbol" viewBox="-94.2 -18.6 188.3 37.1">
	<g>
		<path fill="#37373D" d="M-70.3,16.3h7.3l-11.6-34.3h-7.9l-11.6,34.3h7.3L-80.4-4c0.4-1.2,0.7-2.6,1.1-4.2s0.6-2.7,0.7-3.3
			c0.2,1.4,0.8,4,1.8,7.5L-70.3,16.3z"/>
		<path fill="#37373D" d="M-42.6-17.9l-1.4,3.6h-0.2c-1.2-1.5-2.4-2.6-3.7-3.2s-2.9-0.9-5-0.9c-2.5,0-4.5,0.7-5.9,2.2
			s-2.2,3.5-2.2,6.1c0,2.8,1,4.8,2.9,6.2s4.9,2.1,8.8,2.2l4.5,0.1v1.1c0,2.7-1.4,4-4.1,4c-2.1,0-4.6-0.6-7.4-1.9l-2.4,4.8
			c3,1.6,6.4,2.4,10,2.4c3.5,0,6.2-0.8,8.1-2.3s2.8-3.9,2.8-7v-17.5H-42.6z M-44.7-5.8l-2.8-0.1c-2.1-0.1-3.6-0.4-4.6-1.1
			s-1.5-1.7-1.5-3.1c0-2,1.2-3,3.5-3c1.7,0,3,0.5,4,1.4s1.5,2.2,1.5,3.8V-5.8z"/>
		<path fill="#37373D" d="M-15.6,8.8c1,0,1.8-0.1,2.4-0.2l-0.5-6.7C-14.3,2-15,2.1-15.8,2.1c-2.3,0-4.1-0.6-5.3-1.8
			s-1.9-2.8-1.9-4.9v-13.3h-7.1V8.3h5.4l1.1-4.4h0.4c0.8,1.5,1.9,2.7,3.3,3.6S-17.2,8.8-15.6,8.8z"/>
		<path fill="#37373D" d="M-8.7,15.1c0,2.3,1.3,3.5,3.9,3.5s3.9-1.2,3.9-3.5c0-1.1-0.3-2-1-2.6s-1.6-0.9-2.9-0.9
			C-7.4,11.5-8.7,12.7-8.7,15.1z M-1.3-17.9h-7.1V8.3h7.1V-17.9z"/>
		<path fill="#37373D" d="M18.1-18.4c-4.2,0-7.5,1.2-9.9,3.5S4.6-9.3,4.6-5c0,4.4,1.1,7.8,3.3,10.2s5.2,3.6,9.1,3.6
			c3.7,0,6.6-1.1,8.6-3.2s3.1-5,3.1-8.7v-3.5H11.9c0.1-2,0.7-3.6,1.8-4.8s2.7-1.7,4.7-1.7c1.6,0,3.1,0.2,4.5,0.5s2.9,0.9,4.4,1.6
			v-5.5c-1.2-0.6-2.6-1.1-4-1.4S20.1-18.4,18.1-18.4z M17.1,3.7c-1.5,0-2.7-0.5-3.6-1.4S12.2-0.1,12-1.8h10c0,1.8-0.5,3.1-1.4,4.1
			S18.6,3.7,17.1,3.7z"/>
		<path fill="#37373D" d="M58.8-17.9h-7.1v15.3c0,1.9-0.3,3.3-1,4.3s-1.7,1.4-3.2,1.4c-2,0-3.4-0.7-4.3-2s-1.3-3.6-1.3-6.6v-12.3
			h-7.1V8.3H40l1-3.4h0.4c0.8,1.3,1.9,2.2,3.3,2.9s3,1,4.8,1c3,0,5.4-0.8,6.9-2.5s2.4-4,2.4-7.1V-17.9z"/>
		<path fill="#37373D" d="M77.2-12.7c1.2,0,2.8,0.3,4.5,0.8v-5.3c-1.8-0.8-4-1.2-6.6-1.2c-2.9,0-4.9,0.7-6.2,2.2s-2,3.6-2,6.5V2.9
			h-3.4v3l3.9,2.4l2.1,5.5h4.6V8.3h7.3V2.9h-7.3V-9.7c0-1,0.3-1.8,0.9-2.2S76.2-12.7,77.2-12.7z"/>
		<path fill="#1ABC9C" d="M86-14.6c0,1.3,0.4,2.3,1.1,3s1.7,1,3.1,1c1.3,0,2.3-0.3,3-1s1.1-1.7,1.1-3c0-1.2-0.4-2.2-1.1-2.9
			s-1.7-1.1-3-1.1c-1.3,0-2.3,0.3-3,1S86-15.8,86-14.6z"/>
	</g>
</symbol>
<use xlink:href="#New_Symbol"  width="188.3" height="37.1" x="-94.2" y="-18.6" transform="matrix(1 0 0 -1 95.0352 27.582)" overflow="visible"/>
</svg>
