<?xml version="1.0" encoding="utf-8"?>
<!-- Generator: Adobe Illustrator 22.0.1, SVG Export Plug-In . SVG Version: 6.00 Build 0)  -->
<svg version="1.1" id="Layer_1" xmlns="http://www.w3.org/2000/svg" xmlns:xlink="http://www.w3.org/1999/xlink" x="0px" y="0px"
	 width="190px" height="60px" viewBox="0 0 190 60" enable-background="new 0 0 190 60" xml:space="preserve">
<g>
	<path fill="#FFFFFF" d="M24.7,11.2h7.3L20.4,45.5h-7.9L0.9,11.2h7.3l6.4,20.4c0.4,1.2,0.7,2.6,1.1,4.2s0.6,2.7,0.7,3.3
		c0.2-1.4,0.8-4,1.8-7.5L24.7,11.2z"/>
	<path fill="#FFFFFF" d="M52.5,45.5l-1.4-3.6h-0.2c-1.2,1.5-2.4,2.6-3.7,3.2s-2.9,0.9-5,0.9c-2.5,0-4.5-0.7-5.9-2.2
		s-2.2-3.5-2.2-6.1c0-2.8,1-4.8,2.9-6.2s4.9-2.1,8.8-2.2l4.5-0.1V28c0-2.7-1.4-4-4.1-4c-2.1,0-4.6,0.6-7.4,1.9l-2.4-4.8
		c3-1.6,6.4-2.4,10-2.4c3.5,0,6.2,0.8,8.1,2.3s2.8,3.9,2.8,7v17.5H52.5z M50.4,33.4l-2.8,0.1c-2.1,0.1-3.6,0.4-4.6,1.1
		s-1.5,1.7-1.5,3.1c0,2,1.2,3,3.5,3c1.7,0,3-0.5,4-1.4s1.5-2.2,1.5-3.8V33.4z"/>
	<path fill="#FFFFFF" d="M79.4,18.8c1,0,1.8,0.1,2.4,0.2l-0.5,6.7c-0.6-0.2-1.3-0.2-2.1-0.2c-2.3,0-4.1,0.6-5.3,1.8S72,30.1,72,32.2
		v13.3h-7.1V19.3h5.4l1.1,4.4h0.4c0.8-1.5,1.9-2.7,3.3-3.6S77.8,18.8,79.4,18.8z"/>
	<path fill="#FFFFFF" d="M86.3,12.5c0-2.3,1.3-3.5,3.9-3.5s3.9,1.2,3.9,3.5c0,1.1-0.3,2-1,2.6S91.5,16,90.2,16
		C87.6,16,86.3,14.9,86.3,12.5z M93.8,45.5h-7.1V19.3h7.1V45.5z"/>
	<path fill="#FFFFFF" d="M113.1,46c-4.2,0-7.5-1.2-9.9-3.5s-3.6-5.6-3.6-9.9c0-4.4,1.1-7.8,3.3-10.2s5.2-3.6,9.1-3.6
		c3.7,0,6.6,1.1,8.6,3.2s3.1,5,3.1,8.7v3.5h-16.9c0.1,2,0.7,3.6,1.8,4.8s2.7,1.7,4.7,1.7c1.6,0,3.1-0.2,4.5-0.5s2.9-0.9,4.4-1.6v5.5
		c-1.2,0.6-2.6,1.1-4,1.4S115.2,46,113.1,46z M112.1,23.9c-1.5,0-2.7,0.5-3.6,1.4s-1.4,2.3-1.5,4.1h10c0-1.8-0.5-3.1-1.4-4.1
		S113.6,23.9,112.1,23.9z"/>
	<path fill="#FFFFFF" d="M153.8,45.5h-7.1V30.2c0-1.9-0.3-3.3-1-4.3s-1.7-1.4-3.2-1.4c-2,0-3.4,0.7-4.3,2s-1.3,3.6-1.3,6.6v12.3
		h-7.1V19.3h5.5l1,3.4h0.4c0.8-1.3,1.9-2.2,3.3-2.9s3-1,4.8-1c3,0,5.4,0.8,6.9,2.5s2.4,4,2.4,7.1V45.5z"/>
	<path fill="#FFFFFF" d="M172.2,40.3c1.2,0,2.8-0.3,4.5-0.8v5.3c-1.8,0.8-4,1.2-6.6,1.2c-2.9,0-4.9-0.7-6.2-2.2s-2-3.6-2-6.5V24.7
		h-3.4v-3l3.9-2.4l2.1-5.5h4.6v5.6h7.3v5.4h-7.3v12.6c0,1,0.3,1.8,0.9,2.2S171.3,40.3,172.2,40.3z"/>
	<path fill="#1ABC9C" d="M181,42.1c0-1.3,0.4-2.3,1.1-3s1.7-1,3.1-1c1.3,0,2.3,0.3,3,1s1.1,1.7,1.1,3c0,1.2-0.4,2.2-1.1,2.9
		s-1.7,1.1-3,1.1c-1.3,0-2.3-0.3-3-1S181,43.4,181,42.1z"/>
</g>
</svg>
